<svg id="Layer_1" data-name="Layer 1" xmlns="http://www.w3.org/2000/svg" viewBox="0 0 2500 2500"><defs><style>.cls-1{fill:#fff;stroke:#fff;}</style></defs><title>Artboard 1</title><g id="Layer_2" data-name="Layer 2"><path class="cls-1" d="M2239.28,36.27H264.84c-125.8,0-227.78,102-227.78,227.79V2238.49c0,125.8,102,227.78,227.78,227.78H2239.28c125.8,0,227.78-102,227.78-227.78V264.06C2467.06,138.26,2365.08,36.27,2239.28,36.27Zm76.14,2167.37A116.38,116.38,0,0,1,2199,2320H296.53a116.39,116.39,0,0,1-116.39-116.37h0V293.53A116.39,116.39,0,0,1,296.53,177.14H2199a116.39,116.39,0,0,1,116.39,116.39Z"/></g><g id="Layer_3" data-name="Layer 3"><path class="cls-1" d="M756.54,324.27H738.93c-228.58,0-413.87,187.57-413.87,418.93V1115a65,65,0,0,0,65,65H621.12a64.78,64.78,0,0,0,45.94-19V1045.18c0-39.7,31.75-72.6,71.44-72.9a72,72,0,0,1,72.56,71.44v106.7A64.93,64.93,0,0,0,865.54,1180h239.9a65,65,0,0,0,65-65h0V743.2C1170.41,511.84,985.12,324.27,756.54,324.27Zm21.84,513H699.74a32.67,32.67,0,0,1-32.68-32.66h0V712.18c0-39.7,31.75-72.6,71.44-72.9a72,72,0,0,1,72.56,71.44V804.6a32.67,32.67,0,0,1-32.67,32.67Z"/><path class="cls-1" d="M1756.19,1323.27h-17.61c-228.58,0-413.87,187.57-413.87,418.93V2114a65,65,0,0,0,65,65H1620.8a64.78,64.78,0,0,0,45.94-19V2044.18c0-39.7,31.75-72.6,71.44-72.9a72,72,0,0,1,72.56,71.44v106.7a65,65,0,0,0,54.48,29.56h239.9a65,65,0,0,0,65-65V1742.2C2170.06,1510.84,1984.77,1323.27,1756.19,1323.27Zm21.84,513h-78.64a32.67,32.67,0,0,1-32.68-32.66h0v-92.42c0-39.7,31.75-72.6,71.44-72.9a72,72,0,0,1,72.56,71.44v93.89a32.67,32.67,0,0,1-32.68,32.66h0Z"/><path class="cls-1" d="M2169.45,1032v82.11a65.89,65.89,0,0,1-65.89,65.91H1390a65.91,65.91,0,0,1-65.91-65.91h0V390.18A65.91,65.91,0,0,1,1390,324.27h252.43a65.91,65.91,0,0,1,65.91,65.91h0v510a65.89,65.89,0,0,0,65.89,65.91h329.29a65.89,65.89,0,0,1,65.93,65.87Z"/><rect class="cls-1" x="1837.06" y="324.27" width="332.39" height="513" rx="83.32" ry="83.32"/><path class="cls-1" d="M1180,1398.6v703.66a76,76,0,0,1-76,76H820.06v-3.14c-.89-.09-1.77-.2-2.64-.31,1.72,2.23,2.64,3.45,2.64,3.45s-142.89-8.92-170.67-133.54a.45.45,0,0,0-.07-.3c-.09-.39-.18-.76-.26-1.16v1.22c-9-37.22-34.41-75.26-75.79-73.12a72,72,0,0,0-68.21,71.9v100.41c0,34.59-36.95,34.59-63.6,34.59H401.07a76,76,0,0,1-76-76h0V1398.6a76,76,0,0,1,76-76H678.82l4.43.49,1.81.2c7.88,0,15.4.27,22.57.75,27.19,2.27,66.92,9.5,98.43,31.41a.69.69,0,0,1,.13.11,119.8,119.8,0,0,1,25.81,25.5c15.34,20.74,21,42.66,23.06,57.6v.27a159.14,159.14,0,0,1,1,18.13c0,41.43,34.41,75.26,75.79,73.12a72,72,0,0,0,68.21-71.91V1357.14c0-24.84,36.93-34.53,63.55-34.53H1104A76,76,0,0,1,1180,1398.6Z"/><path class="cls-1" d="M707.63,1324c45.1,3.09,76.53,15.41,98.43,31.41C774.55,1333.52,734.82,1326.29,707.63,1324Z"/><path class="cls-1" d="M856.06,1457.06a159.14,159.14,0,0,0-1-18.13A100,100,0,0,1,856.06,1457.06Z"/><path class="cls-1" d="M707.63,1324c-7.17-.48-14.69-.75-22.57-.75l-1.81-.2C688.82,1323,697.33,1323.17,707.63,1324Z"/><path class="cls-1" d="M855,1438.66a125.47,125.47,0,0,0-23.06-57.6,120.16,120.16,0,0,0-25.77-25.52C830.83,1372.7,850.42,1398.87,855,1438.66Z"/></g></svg>